<svg viewBox="0 0 105.8 21.17" xmlns="http://www.w3.org/2000/svg"><path d="M3.738 5.335h2.096V18.1H3.738Zm0-4.969h2.096v2.659H3.738ZM20.82 10.41v7.69h-2.09v-7.63q0-1.825-.71-2.725-.7-.9-2.12-.9-1.69 0-2.67 1.09-.98 1.08-.98 2.955v7.21h-2.11V5.335h2.11v1.98q.75-1.15 1.76-1.72 1.03-.57 2.36-.57 2.2 0 3.32 1.37 1.13 1.35 1.13 4.015zm14.79 0v7.69h-2.09v-7.63q0-1.825-.72-2.725-.7-.9-2.12-.9-1.69 0-2.67 1.09-.98 1.08-.98 2.955v7.21h-2.1V5.335h2.1v1.98q.75-1.15 1.77-1.72 1.03-.57 2.36-.57 2.2 0 3.33 1.37 1.12 1.35 1.12 4.015zm9.13-3.605q-1.69 0-2.67 1.32-.98 1.31-.98 3.615 0 2.29.97 3.6.97 1.3 2.68 1.3 1.68 0 2.65-1.32t.97-3.59q0-2.275-.97-3.595-.98-1.33-2.65-1.33zm0-1.78q2.72 0 4.29 1.78 1.57 1.78 1.57 4.935 0 3.13-1.57 4.9-1.57 1.78-4.29 1.78-2.75 0-4.31-1.78-1.55-1.78-1.55-4.91 0-3.145 1.55-4.925 1.56-1.78 4.31-1.78z" aria-label="inno" fill="#e40000"/><path d="M58.48 3.585V14.58h1.67q2.85 0 4.35-1.41 1.51-1.41 1.51-4.105 0-2.68-1.5-4.08t-4.36-1.4zM53.84.065h4.9q4.1 0 6.11.59 2.01.58 3.44 1.98 1.27 1.22 1.88 2.81.62 1.6.62 3.62 0 2.055-.62 3.655-.61 1.6-1.88 2.81-1.45 1.39-3.47 2-2.03.57-6.08.57h-4.9zm26.75 7.27q-1.43 0-2.19 1.04-.75 1.02-.75 2.975 0 1.94.75 2.98.77 1.03 2.19 1.03 1.41 0 2.16-1.03.75-1.03.75-2.98 0-1.955-.75-2.975-.74-1.04-2.16-1.04zm0-3.09q3.49 0 5.45 1.88 1.97 1.89 1.97 5.225 0 3.33-1.97 5.2-1.95 1.89-5.45 1.89t-5.48-1.89q-1.97-1.87-1.97-5.21 0-3.325 1.97-5.215 1.98-1.88 5.48-1.88zm21.51.75v3.52q-.9-.6-1.8-.89-.88-.29-1.84-.29-1.81 0-2.82 1.06-1.01 1.05-1.01 2.955 0 1.9 1.01 2.97 1.01 1.05 2.82 1.05 1.02 0 1.94-.3.9-.32 1.7-.91v3.55q-1 .37-2.1.55-1.03.2-2.08.2-3.66 0-5.72-1.88-2.06-1.89-2.06-5.23 0-3.355 2.06-5.225 2.06-1.88 5.72-1.88 1.06 0 2.08.19 1.1.18 2.1.56z" aria-label="Doc" fill="currentColor"/></svg>
