<svg xmlns="http://www.w3.org/2000/svg" width="252.438" height="140.813"><path d="M204.484 124.357c9.988 0 17.166-2.965 22.74-6.7 5.197-3.482 9.226-7.603 12.316-12.92 3.995-6.87 5.225-13.257 5.563-16.962 0-.03 7.338-77.233 7.338-77.233l-37.029-.002s-10.94 113.817-10.928 113.817M169.45 36.415l-5.014 52.075c-.922 12.462 3.75 18.865 6.658 22.239 5.311 6.16 15.076 11.004 26.354 13.025.312-3.312 10.027-104.113 10.027-104.131.338-5.174-1.17-9.7-4.621-13.643C198.827 1.381 192.87.004 190.41.004l-88.537.01C95.213.014 85.2 6.772 85.2 17.92c0 13.774 12.24 18.496 16.45 18.496l67.8-.001" fill="#c50e1f"/><path d="M117.894 113.89h32.97l6.746-70.065h-32.97s-5.893 60.992-6.746 70.066" fill="#c50e1f"/><path d="M228.333 72.737c-.202 2.07 2.075 3.182 4.227 3.185l3.944.003c.234-.568.372-1.214.451-2.016.21-2.198-.976-3.699-4.409-3.702-2.561-.002-4.049.799-4.214 2.53zm10.778 1.38c-.173 1.81-.483 3.18-.98 4.577l-18.366-.016.269-2.767 5.866.004c.743.002 1.76.08 2.41.236l.005-.052c-1.524-.673-2.376-2.2-2.192-4.088.292-3.051 2.607-4.73 6.447-4.727 4.408.004 6.954 2.566 6.541 6.832M229.394 59.31c-.149 1.55.899 2.638 2.644 2.874l.525-5.456c-1.79-.054-3.013.953-3.17 2.582zm5.32-5.245l-.786 8.171c2.888.08 4.287-1.16 4.54-3.797a9.333 9.333 0 00-.385-3.699l2.16-.359c.383 1.344.536 2.948.382 4.551-.381 3.956-2.643 6.153-7.125 6.149-3.817-.004-6.499-2.203-6.143-5.927.354-3.672 2.908-5.196 5.804-5.194.41 0 1.023.028 1.553.105M231.504 44.306c-.733 2.558.915 3.8 4.731 3.804l5.175.004-.268 2.767-12.73-.01.254-2.639c.715.002 1.836.08 2.793.262l.005-.052c-1.663-.57-3.125-1.865-2.637-4.27l2.677.134M242.016 41.808l-18.698-.016.266-2.766 18.699.016-.267 2.766M242.646 35.258l-12.73-.011.267-2.766 12.732.01-.269 2.767zm-14.851-1.409c-.092.984-.914 1.783-1.887 1.782-.948 0-1.638-.802-1.545-1.786.092-.957.94-1.756 1.887-1.756.946 0 1.638.803 1.545 1.76M244.05 20.683l-8.171-.008c-1.588-.001-2.579.438-2.72 1.912-.186 1.94 1.699 3.363 4.262 3.365l6.12.005-.265 2.768-12.73-.012.254-2.637c.691 0 1.788.053 2.49.183l.003-.026c-1.568-.75-2.544-2.303-2.334-4.476.281-2.922 2.212-3.825 4.441-3.822l8.914.007-.264 2.74" fill="#fff"/><path d="M11.236 74.321L9.989 87.272H7.567l1.247-12.95H4.703l.197-2.044h10.666l-.197 2.043h-4.133M19.785 77.787c-1.333 0-2.364 1-2.712 2.532h4.69c.193-1.555-.578-2.532-1.978-2.532zm4.108 4.176h-7.021c-.31 2.51.65 3.62 2.917 3.62a8.75 8.75 0 003.24-.644l.133 1.845c-1.199.443-2.601.71-3.98.71-3.399 0-5.117-1.777-4.742-5.665.319-3.31 2.45-5.82 5.648-5.82 3.156 0 4.265 2.09 4.024 4.599-.034.355-.108.889-.219 1.355M30.268 87.449c-2.845 0-4.777-1.4-4.398-5.33.338-3.51 2.383-6.065 6.072-6.065.932 0 1.832.134 2.536.422l-.594 2.021a6.054 6.054 0 00-2.265-.466c-1.866 0-3.017 1.555-3.236 3.82-.194 2.022.37 3.554 2.548 3.554.866 0 1.703-.155 2.425-.488l.165 1.976c-.948.379-2.143.556-3.253.556M42.61 87.272l.683-7.087c.132-1.376-.166-2.2-1.433-2.2-1.667 0-3.057 1.756-3.271 3.978l-.512 5.309H35.7l1.56-16.216h2.379l-.484 5.02c-.066.69-.199 1.599-.413 2.221l.041.023c.78-1.4 2.178-2.31 3.978-2.31 2.51 0 3.135 1.599 2.95 3.531l-.745 7.731H42.61M55.136 87.272l.682-7.087c.132-1.376-.166-2.2-1.433-2.2-1.666 0-3.057 1.756-3.27 3.978l-.512 5.309h-2.378l1.064-11.04h2.266c-.058.599-.195 1.555-.366 2.176h.022c.782-1.42 2.209-2.398 4.075-2.398 2.511 0 3.136 1.599 2.95 3.531l-.744 7.731h-2.356M63.19 74.276c-.844 0-1.47-.643-1.389-1.486.08-.823.832-1.49 1.676-1.49.822 0 1.448.667 1.369 1.49-.08.82-.833 1.486-1.655 1.486zm-2.45 12.996l1.063-11.04h2.378l-1.063 11.04H60.74M68.243 87.494c-.845 0-1.744-.112-2.414-.311l.372-2.022c.662.268 1.537.422 2.38.422 1.246 0 2.166-.555 2.252-1.443.218-2.266-4.76-.889-4.392-4.709.187-1.934 1.797-3.421 4.841-3.421.667 0 1.436.089 2.068.222l-.318 1.91a6.917 6.917 0 00-2.06-.311c-1.31 0-1.983.533-2.064 1.377-.21 2.176 4.793.978 4.436 4.688-.201 2.088-2.168 3.598-5.101 3.598M79.794 87.449c-2.844 0-4.776-1.4-4.398-5.33.338-3.51 2.383-6.065 6.072-6.065.933 0 1.832.134 2.536.422l-.593 2.021a6.054 6.054 0 00-2.266-.466c-1.866 0-3.017 1.555-3.235 3.82-.195 2.022.37 3.554 2.547 3.554.867 0 1.703-.155 2.425-.488l.165 1.976c-.947.379-2.143.556-3.253.556M92.136 87.272l.683-7.087c.132-1.376-.166-2.2-1.433-2.2-1.666 0-3.057 1.756-3.27 3.978l-.512 5.309h-2.378l1.561-16.216h2.378l-.483 5.02c-.066.69-.2 1.599-.414 2.221l.042.023c.779-1.4 2.178-2.31 3.977-2.31 2.51 0 3.136 1.599 2.95 3.531l-.745 7.731h-2.356M102.713 77.787c-1.333 0-2.363 1-2.711 2.532h4.688c.195-1.555-.577-2.532-1.977-2.532zm4.108 4.176H99.8c-.31 2.51.65 3.62 2.917 3.62a8.75 8.75 0 003.24-.644l.134 1.845a11.74 11.74 0 01-3.98.71c-3.4 0-5.117-1.777-4.742-5.665.318-3.31 2.448-5.82 5.648-5.82 3.155 0 4.265 2.09 4.023 4.599-.034.355-.107.889-.219 1.355M5.244 114.154c-4.711 0-5.463-2.577-5.198-5.332l.952-9.884H3.42l-.935 9.707c-.192 1.999.329 3.51 3.106 3.51 2.445 0 3.654-1.02 3.924-3.821l.904-9.396h2.378l-.887 9.219c-.385 3.998-2.733 5.997-6.666 5.997M21.586 113.932l.682-7.086c.132-1.377-.166-2.2-1.433-2.2-1.666 0-3.057 1.755-3.271 3.977l-.51 5.31h-2.379l1.063-11.04h2.267c-.058.598-.195 1.554-.366 2.175h.022c.782-1.42 2.21-2.398 4.075-2.398 2.511 0 3.136 1.6 2.95 3.531l-.745 7.731h-2.355M29.641 100.936c-.845 0-1.471-.643-1.39-1.486.08-.823.832-1.49 1.677-1.49.821 0 1.447.667 1.368 1.49-.08.821-.834 1.486-1.655 1.486zm-2.451 12.996l1.063-11.04h2.378l-1.063 11.04H27.19M38.034 113.932h-2.422l-3.07-11.04h2.622l1.503 5.842c.172.756.364 1.534.494 2.266h.022c.243-.689.564-1.466.854-2.178l2.682-5.93h2.555l-5.24 11.04M48.857 104.447c-1.333 0-2.362 1-2.71 2.532h4.689c.194-1.555-.578-2.532-1.979-2.532zm4.109 4.176h-7.022c-.309 2.511.652 3.62 2.918 3.62 1.067 0 2.2-.222 3.24-.644l.134 1.845c-1.199.443-2.602.71-3.98.71-3.4 0-5.117-1.777-4.742-5.664.318-3.31 2.448-5.82 5.648-5.82 3.155 0 4.265 2.088 4.023 4.598a10.54 10.54 0 01-.22 1.355M61.71 105.024c-2.16-.422-3.373 1.11-3.692 4.42l-.432 4.488H55.21l1.063-11.04h2.267a15.5 15.5 0 01-.458 2.442h.044c.632-1.487 1.876-2.864 3.92-2.642l-.336 2.332M65.124 114.154c-.845 0-1.745-.111-2.414-.311l.371-2.022c.664.268 1.538.423 2.381.423 1.245 0 2.166-.555 2.252-1.444.218-2.266-4.76-.889-4.392-4.709.186-1.933 1.797-3.421 4.842-3.421.666 0 1.435.089 2.067.222l-.319 1.91a6.88 6.88 0 00-2.059-.31c-1.31 0-1.983.532-2.064 1.376-.21 2.176 4.793.978 4.436 4.688-.201 2.088-2.168 3.598-5.101 3.598M74.823 100.936c-.845 0-1.471-.643-1.39-1.486.08-.823.832-1.49 1.677-1.49.821 0 1.447.667 1.368 1.49-.08.821-.833 1.486-1.655 1.486zm-2.45 12.996l1.062-11.04h2.378l-1.063 11.04h-2.378M81.797 114.132c-2.355 0-2.979-.91-2.741-3.376l.58-6.02h-2.111l.178-1.844h2.11l.338-3.51 2.44-.644-.4 4.154h2.889l-.178 1.844h-2.888l-.51 5.287c-.158 1.644.132 2.088 1.243 2.088a6.5 6.5 0 001.37-.156l.017 1.91c-.682.156-1.604.267-2.337.267M94.105 100.805c-.756 0-1.299-.6-1.226-1.355.07-.734.729-1.333 1.484-1.333.733 0 1.276.599 1.205 1.333-.072.754-.731 1.355-1.463 1.355zm-4.378 0c-.755 0-1.275-.6-1.202-1.355a1.487 1.487 0 011.46-1.333c.757 0 1.299.599 1.228 1.333a1.515 1.515 0 01-1.486 1.355zm3.112 8.062c-3.289 0-4.285.889-4.385 1.933-.082.845.433 1.488 1.367 1.488 1.6 0 2.838-1.556 2.99-3.131l.028-.29zm-.332 5.065c.069-.71.161-1.444.308-2.043l-.02-.022c-.66 1.31-2.131 2.287-3.887 2.287-1.888 0-2.966-1.266-2.793-3.065.24-2.488 2.833-3.82 6.878-3.82l.045-.467c.149-1.555-.335-2.288-1.957-2.288-1.022 0-2.388.332-3.408.778l-.245-1.845a12.169 12.169 0 014.163-.777c3.223 0 4.08 1.466 3.85 3.865l-.421 4.376c-.092.956-.18 2.087-.224 3.021h-2.289M101.744 114.132c-2.354 0-2.978-.91-2.74-3.376l.579-6.02h-2.11l.177-1.844h2.11l.338-3.51 2.44-.644-.4 4.154h2.889l-.178 1.844h-2.888l-.509 5.287c-.159 1.644.132 2.088 1.243 2.088.49 0 .962-.067 1.37-.156l.016 1.91a11.48 11.48 0 01-2.337.267M53.422 127.44c-.644 0-1.291.024-1.826.045l-.431 4.466c.399.022.776.022 1.287.022 2.244 0 3.377-.912 3.522-2.422.118-1.222-.485-2.111-2.552-2.111zm-1.099 6.332c-.222 0-1 0-1.335.022l-.463 4.798c.374.043 1.19.11 1.768.11 2.2 0 3.327-1.088 3.468-2.553.162-1.69-1.193-2.377-3.438-2.377zm-.352 6.886c-1.022 0-2.395-.046-4.06-.067l1.444-14.993c1.18-.023 2.85-.068 4.672-.068 3.2 0 4.761 1.332 4.538 3.642-.148 1.534-1.162 2.843-2.773 3.422l-.004.044c1.705.29 2.73 1.645 2.559 3.422-.208 2.154-1.955 4.598-6.376 4.598M65.78 131.106c-1.334 0-2.364 1-2.712 2.532h4.689c.195-1.555-.577-2.532-1.978-2.532zm4.108 4.177h-7.022c-.31 2.51.651 3.62 2.918 3.62 1.067 0 2.199-.223 3.24-.644l.133 1.844c-1.198.443-2.601.71-3.98.71-3.4 0-5.117-1.777-4.742-5.664.319-3.31 2.449-5.82 5.649-5.82 3.155 0 4.265 2.088 4.023 4.599-.034.355-.107.888-.22 1.355M78.63 131.684c-2.159-.423-3.372 1.11-3.691 4.42l-.432 4.487h-2.378l1.063-11.04h2.267a15.56 15.56 0 01-.458 2.444h.044c.632-1.49 1.876-2.866 3.92-2.642l-.335 2.33M79.94 140.591l1.561-16.216h2.378l-1.56 16.216H79.94M88.039 127.595c-.845 0-1.472-.642-1.39-1.486.079-.823.831-1.49 1.676-1.49.822 0 1.447.667 1.368 1.49-.08.821-.833 1.486-1.654 1.486zm-2.452 12.996l1.063-11.04h2.378l-1.063 11.04h-2.378M98.131 140.591l.683-7.086c.132-1.378-.166-2.2-1.433-2.2-1.666 0-3.057 1.756-3.27 3.978l-.512 5.308H91.22l1.063-11.04h2.267c-.058.6-.195 1.555-.366 2.178h.021c.782-1.423 2.21-2.4 4.076-2.4 2.511 0 3.136 1.6 2.95 3.53l-.745 7.732H98.13" fill="#c50e1f"/></svg>